<?xml version="1.0" encoding="UTF-8"?><svg width="20" height="20" viewBox="0 0 20 20" fill="none" xmlns="http://www.w3.org/2000/svg">
<path d="M17.2725 0C17.9959 0 18.6896 0.28736 19.2011 0.798866C19.7126 1.31037 20 2.00412 20 2.7275V17.2725C20 17.9959 19.7126 18.6896 19.2011 19.2011C18.6896 19.7126 17.9959 20 17.2725 20H2.7275C2.00412 20 1.31037 19.7126 0.798866 19.2011C0.28736 18.6896 0 17.9959 0 17.2725V2.7275C0 2.00412 0.28736 1.31037 0.798866 0.798866C1.31037 0.28736 2.00412 0 2.7275 0H17.2725ZM13.9142 6.87167L8.585 12.2817L6.09 9.71333C6.01553 9.63503 5.92572 9.57291 5.82618 9.53085C5.72664 9.48879 5.6195 9.46769 5.51145 9.46886C5.40339 9.47003 5.29673 9.49346 5.19813 9.53767C5.09953 9.58188 5.01109 9.64593 4.93833 9.72583C4.78666 9.89149 4.70351 10.1085 4.70568 10.3331C4.70784 10.5577 4.79516 10.7731 4.95 10.9358L8.01167 14.0867C8.08481 14.1635 8.17275 14.2248 8.2702 14.2668C8.36764 14.3088 8.47258 14.3307 8.57869 14.3311C8.68481 14.3315 8.7899 14.3104 8.88765 14.2691C8.9854 14.2278 9.07379 14.1672 9.1475 14.0908L15.0458 8.10167C15.2017 7.93992 15.2904 7.72504 15.2939 7.50044C15.2975 7.27585 15.2157 7.05827 15.065 6.89167C14.9927 6.81139 14.9046 6.74684 14.8063 6.70205C14.708 6.65726 14.6015 6.63318 14.4935 6.6313C14.3855 6.62943 14.2782 6.6498 14.1784 6.69115C14.0786 6.7325 13.9892 6.79395 13.9142 6.87167Z" fill="#000000"/>
</svg>
