<?xml version="1.0" encoding="UTF-8"?><svg width="20" height="20" viewBox="0 0 20 20" fill="none" xmlns="http://www.w3.org/2000/svg">
<g id="Icons / Eye Password">
<path id="Vector" d="M8.23256 11.7706L8.58611 11.417L8.23256 11.7706ZM8.16953 9.19607L8.37101 8.73847L7.4558 8.3355L7.25431 8.7931L8.16953 9.19607ZM11.1723 12.7651L11.6327 12.57L11.2423 11.6493L10.782 11.8445L11.1723 12.7651ZM8.34057 7.50326C8.11066 7.65622 8.04827 7.96659 8.20123 8.1965C8.35418 8.42642 8.66456 8.4888 8.89447 8.33585L8.34057 7.50326ZM11.7681 8.23512L12.1216 7.88157V7.88157L11.7681 8.23512ZM11.6674 11.1087C11.5144 11.3387 11.5768 11.649 11.8067 11.802C12.0366 11.9549 12.347 11.8926 12.5 11.6626L11.6674 11.1087ZM18.3337 9.97932L18.8041 10.1486L18.8693 9.96756L18.7963 9.78954L18.3337 9.97932ZM5.6594 4.78522C5.41855 4.92028 5.33279 5.22503 5.46786 5.46588C5.60292 5.70674 5.90767 5.7925 6.14852 5.65743L5.6594 4.78522ZM14.6799 13.878C14.4549 14.0381 14.4023 14.3503 14.5624 14.5753C14.7224 14.8003 15.0346 14.8529 15.2596 14.6928L14.6799 13.878ZM1.66699 9.97929L1.20369 9.79126L1.13216 9.96753L1.19588 10.1468L1.66699 9.97929ZM4.90234 6.51529C5.11512 6.33929 5.14494 6.02411 4.96894 5.81132C4.79294 5.59854 4.47777 5.56872 4.26498 5.74472L4.90234 6.51529ZM13.8808 15.4985C14.1309 15.3814 14.2388 15.0838 14.1218 14.8337C14.0047 14.5836 13.7071 14.4757 13.457 14.5927L13.8808 15.4985ZM2.31517 2.68807C2.11991 2.49281 1.80332 2.49281 1.60806 2.68807C1.4128 2.88333 1.4128 3.19992 1.60806 3.39518L2.31517 2.68807ZM16.6081 18.3952C16.8033 18.5904 17.1199 18.5904 17.3152 18.3952C17.5104 18.1999 17.5104 17.8833 17.3152 17.6881L16.6081 18.3952ZM8.58611 11.417C7.98622 10.8171 7.84638 9.93 8.16953 9.19607L7.25431 8.7931C6.77051 9.8919 6.97777 11.2229 7.87901 12.1242L8.58611 11.417ZM10.782 11.8445C10.0529 12.1536 9.17917 12.0101 8.58611 11.417L7.87901 12.1242C8.76998 13.0151 10.081 13.2278 11.1723 12.7651L10.782 11.8445ZM8.89447 8.33585C9.67112 7.81916 10.7298 7.90397 11.4145 8.58868L12.1216 7.88157C11.0936 6.85349 9.50602 6.72792 8.34057 7.50326L8.89447 8.33585ZM11.4145 8.58868C12.0992 9.27338 12.1841 10.3321 11.6674 11.1087L12.5 11.6626C13.2753 10.4972 13.1497 8.90965 12.1216 7.88157L11.4145 8.58868ZM9.98757 4.66956C12.7879 4.66956 14.7504 6.02865 16.0293 7.41364C16.6694 8.10687 17.1328 8.80158 17.4358 9.32282C17.587 9.58297 17.6975 9.79857 17.7695 9.94734C17.8054 10.0217 17.8317 10.0792 17.8485 10.1171C17.857 10.1361 17.863 10.1501 17.8668 10.1589C17.8687 10.1633 17.8699 10.1664 17.8707 10.1681C17.871 10.1689 17.8712 10.1695 17.8713 10.1696C17.8713 10.1697 17.8713 10.1697 17.8713 10.1696C17.8713 10.1696 17.8712 10.1694 17.8712 10.1694C17.8712 10.1693 17.8711 10.1691 18.3337 9.97932C18.7963 9.78954 18.7962 9.78932 18.7961 9.78908C18.796 9.78897 18.7959 9.7887 18.7958 9.78848C18.7956 9.78804 18.7954 9.7875 18.7952 9.78689C18.7946 9.78565 18.794 9.78406 18.7932 9.78212C18.7915 9.77824 18.7893 9.77298 18.7865 9.76638C18.7809 9.75317 18.7728 9.73459 18.7623 9.71099C18.7414 9.66381 18.7106 9.59653 18.6697 9.51201C18.588 9.34306 18.4657 9.10478 18.3004 8.82026C17.9701 8.25217 17.465 7.49444 16.764 6.73523C15.3605 5.21534 13.1499 3.66956 9.98757 3.66956V4.66956ZM6.14852 5.65743C7.19232 5.07209 8.46164 4.66956 9.98757 4.66956V3.66956C8.27654 3.66956 6.84008 4.12312 5.6594 4.78522L6.14852 5.65743ZM15.2596 14.6928C16.5482 13.776 17.431 12.6433 17.9905 11.7463C18.2709 11.2966 18.4722 10.9028 18.6043 10.6192C18.6704 10.4773 18.7192 10.3626 18.7521 10.282C18.7686 10.2417 18.781 10.2099 18.7896 10.1874C18.7939 10.1761 18.7973 10.1672 18.7997 10.1607C18.8009 10.1575 18.8019 10.1548 18.8026 10.1528C18.803 10.1518 18.8033 10.1509 18.8035 10.1502C18.8037 10.1499 18.8038 10.1496 18.8039 10.1493C18.8039 10.1492 18.804 10.149 18.804 10.1489C18.8041 10.1488 18.8041 10.1486 18.3337 9.97932C17.8632 9.81001 17.8632 9.80988 17.8633 9.80976C17.8633 9.80973 17.8633 9.80961 17.8634 9.80956C17.8634 9.80944 17.8634 9.80937 17.8634 9.80933C17.8635 9.80926 17.8634 9.80934 17.8634 9.80957C17.8632 9.81003 17.8628 9.81111 17.8622 9.81278C17.8609 9.81612 17.8588 9.82184 17.8557 9.82983C17.8496 9.84583 17.8398 9.87093 17.8262 9.90431C17.7989 9.97109 17.7565 10.0709 17.6977 10.1971C17.5801 10.4498 17.3977 10.8071 17.142 11.2171C16.6292 12.0394 15.8301 13.0597 14.6799 13.878L15.2596 14.6928ZM1.66699 9.97929C1.19588 10.1468 1.19596 10.147 1.19606 10.1473C1.1961 10.1474 1.1962 10.1477 1.19628 10.1479C1.19645 10.1484 1.19665 10.1489 1.19688 10.1496C1.19735 10.1509 1.19795 10.1525 1.19868 10.1545C1.20013 10.1585 1.20212 10.1639 1.20463 10.1707C1.20967 10.1842 1.21685 10.2031 1.22623 10.2271C1.24499 10.2751 1.2726 10.3434 1.30957 10.4291C1.38349 10.6003 1.49506 10.8416 1.64857 11.1296C1.95506 11.7046 2.4317 12.4714 3.11401 13.2398C4.48316 14.7815 6.69038 16.3362 9.98756 16.3362V15.3362C7.04631 15.3362 5.09325 13.9625 3.86172 12.5757C3.24369 11.8798 2.80989 11.1824 2.53103 10.6592C2.39187 10.3981 2.29204 10.1819 2.22771 10.0328C2.19557 9.95835 2.17235 9.90079 2.15757 9.86298C2.15018 9.84408 2.1449 9.83013 2.14168 9.82148C2.14006 9.81715 2.13897 9.81416 2.13837 9.81253C2.13808 9.81171 2.13791 9.81124 2.13786 9.81112C2.13784 9.81106 2.13785 9.81109 2.13789 9.8112C2.13791 9.81126 2.13797 9.81141 2.13798 9.81144C2.13804 9.81161 2.13811 9.81181 1.66699 9.97929ZM1.66699 9.97929C2.13029 10.1673 2.13024 10.1674 2.1302 10.1675C2.13019 10.1676 2.13015 10.1677 2.13013 10.1677C2.13009 10.1678 2.13007 10.1679 2.13005 10.1679C2.13003 10.168 2.13005 10.1679 2.13013 10.1677C2.13029 10.1673 2.13066 10.1664 2.13125 10.165C2.13242 10.1622 2.13444 10.1574 2.13731 10.1506C2.14307 10.1371 2.15227 10.1159 2.16496 10.0876C2.19035 10.0309 2.2297 9.94602 2.28354 9.83796C2.3913 9.62167 2.55662 9.31352 2.78359 8.95391C3.23871 8.23278 3.93496 7.31544 4.90234 6.51529L4.26498 5.74472C3.19351 6.63097 2.43142 7.63827 1.93793 8.42018C1.69058 8.81209 1.50902 9.15007 1.38848 9.39202C1.32816 9.51307 1.28301 9.61032 1.25243 9.67855C1.23714 9.71267 1.22548 9.73955 1.21738 9.75855C1.21333 9.76805 1.21017 9.77558 1.2079 9.78105C1.20676 9.78379 1.20584 9.78602 1.20514 9.78772C1.20479 9.78857 1.20449 9.7893 1.20425 9.78989C1.20413 9.79018 1.20403 9.79044 1.20393 9.79067C1.20389 9.79078 1.20383 9.79093 1.2038 9.79099C1.20375 9.79113 1.20369 9.79126 1.66699 9.97929ZM9.98756 16.3362C11.5009 16.3362 12.7919 16.008 13.8808 15.4985L13.457 14.5927C12.4978 15.0416 11.3512 15.3362 9.98756 15.3362V16.3362ZM1.60806 3.39518L16.6081 18.3952L17.3152 17.6881L2.31517 2.68807L1.60806 3.39518Z" fill="#000000"/>
</g>
</svg>
